<?xml version="1.0" encoding="UTF-8" standalone="no"?>
<!-- Created with Inkscape (http://www.inkscape.org/) -->

<svg
   xmlns:dc="http://purl.org/dc/elements/1.1/"
   xmlns:cc="http://creativecommons.org/ns#"
   xmlns:rdf="http://www.w3.org/1999/02/22-rdf-syntax-ns#"
   xmlns:svg="http://www.w3.org/2000/svg"
   xmlns="http://www.w3.org/2000/svg"
   xmlns:sodipodi="http://sodipodi.sourceforge.net/DTD/sodipodi-0.dtd"
   xmlns:inkscape="http://www.inkscape.org/namespaces/inkscape"
   id="svg3336"
   version="1.1"
   inkscape:version="0.91 r13725"
   xml:space="preserve"
   width="670.67468"
   height="312.59674"
   viewBox="0 0 670.67468 312.59674"
   sodipodi:docname="ampfit_original.svg"><metadata
     id="metadata3342"><rdf:RDF><cc:Work
         rdf:about=""><dc:format>image/svg+xml</dc:format><dc:type
           rdf:resource="http://purl.org/dc/dcmitype/StillImage" /><dc:title></dc:title></cc:Work></rdf:RDF></metadata><defs
     id="defs3340"><clipPath
       clipPathUnits="userSpaceOnUse"
       id="clipPath3350"><path
         d="M 0,792 792,792 792,0 0,0 0,792 Z"
         id="path3352"
         inkscape:connector-curvature="0" /></clipPath><clipPath
       clipPathUnits="userSpaceOnUse"
       id="clipPath3378"><path
         d="m 107.651,376.273 544.178,0 0,-84.867 -544.178,0 0,84.867 z"
         id="path3380"
         inkscape:connector-curvature="0" /></clipPath></defs><sodipodi:namedview
     pagecolor="#ffffff"
     bordercolor="#666666"
     borderopacity="1"
     objecttolerance="10"
     gridtolerance="10"
     guidetolerance="10"
     inkscape:pageopacity="0"
     inkscape:pageshadow="2"
     inkscape:window-width="1036"
     inkscape:window-height="749"
     id="namedview3338"
     showgrid="false"
     fit-margin-top="0"
     fit-margin-left="0"
     fit-margin-right="0"
     fit-margin-bottom="0"
     inkscape:zoom="0.55454545"
     inkscape:cx="357.20813"
     inkscape:cy="300.56105"
     inkscape:window-x="154"
     inkscape:window-y="0"
     inkscape:window-maximized="0"
     inkscape:current-layer="g3344" /><g
     id="g3344"
     inkscape:groupmode="layer"
     inkscape:label="ampfit_original"
     transform="matrix(1.25,0,0,-1.25,-137.79187,651.298)"><g
       id="g3346"><g
         id="g3348"
         clip-path="url(#clipPath3350)"><g
           id="g3354"
           transform="translate(391.7627,319.6094)"><path
             d="m 0,0 c -6.273,-7.771 -12.669,-15.453 -19.362,-22.867 0,0 57.145,58.664 87.099,86.728 1.58,1.478 3.08,2.866 4.524,4.183 10.672,9.738 19.901,20.656 32.483,28.214 21.94,13.181 40.105,-19.557 46.192,-35.714 -0.081,18.783 5.235,38.013 8.526,56.554 3.408,19.195 7.636,38.277 13.392,56.916 2.832,9.164 6.261,19.346 11.731,27.346"
             style="fill:#9e1e22;fill-opacity:1;fill-rule:nonzero;stroke:none"
             id="path3356"
             inkscape:connector-curvature="0" /></g><g
           id="g3358"
           transform="translate(393.3252,318.1094)"><path
             d="m 0,0 c -7.141,-6.982 -14.175,-14.082 -20.918,-21.447 0,0 52.951,62.47 78.033,94.967 1.318,1.71 2.562,3.337 3.736,4.894 8.675,11.553 18.664,21.787 24.984,35.026 11.037,23.099 -23.283,38.06 -39.949,42.579 17.836,2.395 37.345,8.834 55.486,13.877 18.783,5.223 37.377,11.248 55.383,18.753 8.853,3.692 18.656,8.075 26.107,14.28"
             style="fill:#9e1e22;fill-opacity:1;fill-rule:nonzero;stroke:none"
             id="path3360"
             inkscape:connector-curvature="0" /></g><g
           id="g3362"
           transform="translate(482.0215,282.9687)"><path
             d="m 0,0 c -1.183,-0.26 -2.054,0.777 -2.98,1.328 -4.485,2.649 -9.198,5.478 -13.825,8.244 -3.565,2.141 -7.041,3.975 -6.603,10.237 0.035,0.578 0.338,1.211 0.267,1.937 -3.869,0.762 -7.82,1.449 -10.724,3.244 1.071,3.092 2.242,6.885 1.465,11.174 -0.002,0.146 0.056,0.223 0.175,0.254 5.106,-0.668 9.905,-3.047 12.834,-6.352 1.571,-1.785 4.713,-3.82 3.653,-7.078 C -12.009,14.52 -7.051,7.439 -1.062,1.305 -0.688,0.932 0,0.662 0,0"
             style="fill:#9e1e22;fill-opacity:1;fill-rule:nonzero;stroke:none"
             id="path3364"
             inkscape:connector-curvature="0" /></g><g
           id="g3366"
           transform="translate(468.251,332.7109)"><path
             d="M 0,0 C 0.252,-0.758 -0.596,-0.975 -1.125,-1.293 -3.984,-3 -8.449,-5.207 -12.988,-4.443 c 0.539,1.285 1.641,2.037 1.891,3.576 3.225,-0.344 7.578,-0.098 10.51,0.85 C -0.385,0.043 -0.268,0.105 0,0"
             style="fill:#9e1e22;fill-opacity:1;fill-rule:nonzero;stroke:none"
             id="path3368"
             inkscape:connector-curvature="0" /></g><g
           id="g3370"
           transform="translate(442.5693,368.5)"><path
             d="m 0,0 c -10.179,-10.715 -20.869,-21.299 -30.896,-32.127 2.521,0.947 5.134,1.746 7.861,2.434 1.769,0.445 3.596,0.943 5.664,0.771 0.323,-0.025 0.772,-0.295 1.18,-0.207 0.354,0.066 0.652,0.59 1.138,0.957 1.953,1.459 4.937,2.52 8.19,2.771 0.39,0.033 0.953,-0.088 1.332,0.045 0.543,0.189 1.219,1.607 2.033,1.992 0.772,0.365 1.739,0.342 2.912,0.51 -0.191,0.664 -0.564,1.139 -1.132,1.385 -3.235,-1.189 -6.422,0.432 -7.379,3.109 -1.203,3.33 -0.177,7.52 2.455,8.943 2.133,0.742 5.573,1.186 7.776,0.256 1.976,-0.83 3.824,-2.629 5.006,-4.516 0.451,-0.73 1.064,-1.734 1.074,-2.139 -0.006,-1.164 -1.496,-1.482 -2.105,-2.244 1.524,-1.09 3.028,-2.197 4.297,-3.543 5.31,-0.381 6.655,-6.938 5.433,-12.459 -0.754,-1.967 -1.472,-3.969 -3.015,-5.193 -0.594,-0.963 0.31,-2.422 -0.215,-3.602 -0.537,-1.219 -1.728,-2.131 -2.66,-3.1 -0.991,-1.041 -1.901,-2.053 -2.913,-2.856 0.221,-3.416 -0.354,-6.657 -0.945,-9.569 -1.605,-5.402 -3.826,-10.404 -6.451,-14.931 -0.674,-1.173 -1.493,-2.206 -2.139,-3.343 -0.593,-0.99 -0.763,-2.096 -1.683,-2.807 -0.392,-0.314 -0.923,-0.359 -1.222,-0.709 -0.856,-0.166 -2.03,-0.453 -3.256,-0.363 -0.742,0.059 -1.483,0.447 -2.189,0.516 -1.422,0.145 -3.199,-0.428 -4.492,-0.82 -0.653,-0.193 -1.351,-0.482 -1.985,-0.732 -4.681,-1.814 -8.974,-4.637 -13.056,-7.367 -4.177,-2.797 -8.234,-5.604 -11.681,-8.58 -0.248,-0.006 -0.503,-0.018 -0.75,-0.021 0.528,1.197 1.422,2.238 2.233,3.246 4.028,4.988 8.404,9.932 12.818,14.639 0.903,0.963 1.789,1.904 2.754,2.77 0.955,0.859 2.091,1.533 3.013,2.439 0.053,0.055 0.127,0.205 0.168,0.262 1.336,1.9 2.74,3.514 5.131,4.26 2.304,0.557 5.545,0.662 7.687,0.088 -0.515,5.363 0.718,9.738 2.843,12.889 -0.332,0.834 -0.685,1.631 -1.091,2.398 -1.547,5.52 1.48,9.209 5.082,10.951 2.23,1.723 3.504,4.336 4.533,7.178 -1.513,1.141 -3.255,2.508 -3.017,5.252 -0.48,0.027 -0.992,-0.562 -1.394,-0.879 -0.931,-0.301 -1.813,-0.623 -2.64,-1.006 -1.58,-0.492 -2.953,-0.41 -4.58,-0.82 -1.184,-0.305 -2.338,-0.994 -3.635,-1.377 -5.937,-1.754 -13.147,-1.91 -19.678,-1.645 -0.616,0.023 -1.325,0.295 -1.771,0.189 -0.502,-0.119 -1.344,-1.219 -1.864,-1.733 -4.345,-4.288 -8.365,-8.395 -12.894,-12.474"
             style="fill:#9e1e22;fill-opacity:1;fill-rule:nonzero;stroke:none"
             id="path3372"
             inkscape:connector-curvature="0" /></g><g
           id="g3374"><g
             id="g3376" /><g
             id="g3382"><g
               clip-path="url(#clipPath3378)"
               id="g3384"><text
                 transform="matrix(1,0,0,-0.87138376,107.6514,313.2734)"
                 style="font-variant:normal;font-weight:normal;font-stretch:normal;font-size:82.62719727px;font-family:Michroma;-inkscape-font-specification:Michroma;writing-mode:lr-tb;fill:#000000;fill-opacity:1;fill-rule:nonzero;stroke:none"
                 id="text3386"><tspan
                   x="0 87.791397 200.74278 280.80853 371.28531 441.02267 464.24094"
                   y="0"
                   sodipodi:role="line"
                   id="tspan3388">AMP FIT</tspan></text>
</g></g></g></g></g></g></svg>